<?xml version="1.0" standalone="no"?>
<!DOCTYPE svg PUBLIC "-//W3C//DTD SVG 20010904//EN"
 "http://www.w3.org/TR/2001/REC-SVG-20010904/DTD/svg10.dtd">
<svg version="1.0" xmlns="http://www.w3.org/2000/svg"
 width="1215.000000pt" height="1205.000000pt" viewBox="0 0 1215.000000 1205.000000"
 preserveAspectRatio="xMidYMid meet">

<g transform="translate(0.000000,1205.000000) scale(0.100000,-0.100000)"
fill="#000000" stroke="none">
<path d="M3148 10119 c-60 -14 -150 -63 -205 -113 -61 -55 -107 -124 -142
-214 l-26 -67 -5 -2090 -5 -2089 -55 -13 c-30 -6 -90 -19 -134 -27 -158 -30
-272 -110 -332 -231 -28 -57 -29 -66 -29 -195 0 -134 0 -136 34 -200 47 -90
159 -201 244 -241 36 -17 94 -34 129 -39 90 -14 6870 -12 6927 1 129 29 278
153 342 284 33 69 34 72 34 200 0 124 -1 133 -29 190 -63 128 -168 197 -356
235 -58 11 -120 25 -137 31 l-33 11 0 2036 c-1 1120 -5 2070 -9 2109 -22 188
-170 364 -350 417 -49 14 -328 16 -2940 15 -1630 -1 -2902 -5 -2923 -10z
m5819 -284 c62 -31 102 -81 120 -149 10 -41 13 -427 13 -1984 0 -2073 2 -1974
-47 -1998 -20 -10 -5878 -18 -5932 -9 -18 4 -44 17 -57 30 l-24 24 0 1953 0
1953 29 61 c30 65 85 119 136 133 17 5 1266 10 2871 10 l2840 1 51 -25z
m-4104 -4487 c13 -13 45 -66 71 -118 72 -140 117 -202 178 -244 103 -71 69
-68 908 -73 475 -3 784 -1 833 5 164 21 247 89 350 287 37 72 77 138 89 148
19 16 75 17 874 17 l854 0 122 -26 c68 -14 157 -34 198 -45 41 -11 106 -24
143 -29 116 -17 175 -60 198 -143 27 -99 -22 -199 -120 -249 l-55 -28 -3428 0
c-3191 0 -3431 1 -3470 17 -116 46 -170 137 -147 250 19 93 74 135 201 153 40
6 141 26 223 45 83 18 170 38 195 43 26 6 400 10 903 11 l858 1 22 -22z m2145
-5 c-24 -56 -87 -148 -111 -165 l-32 -23 -745 -3 c-410 -2 -769 0 -798 3 -66
8 -99 35 -146 121 -20 35 -36 67 -36 69 0 3 421 5 936 5 515 0 934 -3 932 -7z"/>
<path d="M7072 9580 c-135 -36 -244 -114 -322 -233 -64 -97 -80 -164 -80 -329
l0 -140 -277 -279 c-211 -213 -279 -287 -281 -308 -2 -22 10 -41 65 -99 37
-40 76 -72 86 -72 9 0 40 12 68 27 100 52 158 43 265 -38 28 -22 59 -39 69
-39 11 0 100 81 211 191 l192 191 163 2 c151 2 169 4 231 28 182 72 300 205
348 394 22 86 25 158 9 254 -11 72 -31 110 -57 110 -9 0 -96 -79 -194 -177
l-176 -176 -54 21 c-29 12 -75 26 -101 31 -26 5 -49 10 -51 12 -8 8 -66 184
-66 199 0 8 74 89 165 180 174 173 187 195 141 225 -32 21 -149 45 -221 44
-33 0 -93 -9 -133 -19z"/>
<path d="M4524 9478 c-44 -41 -63 -67 -59 -77 3 -9 54 -103 113 -210 75 -136
114 -199 134 -211 16 -10 64 -25 107 -34 l78 -17 329 -332 c604 -608 813 -825
814 -844 0 -7 -13 -27 -28 -45 -51 -59 -62 -82 -62 -126 0 -70 42 -135 116
-178 47 -27 86 -31 104 -9 18 22 38 18 66 -12 36 -41 51 -72 70 -146 15 -61
24 -75 113 -174 139 -154 751 -783 794 -816 21 -16 62 -40 93 -54 76 -35 192
-31 274 9 75 37 174 137 213 217 27 56 31 74 32 151 0 140 6 133 -504 649
-325 330 -455 456 -489 472 -29 14 -71 24 -118 27 -71 4 -76 6 -109 44 l-36
39 27 35 c31 40 27 57 -28 119 -50 57 -106 95 -143 95 -31 0 -108 -42 -134
-73 -7 -9 -26 -17 -41 -17 -22 0 -63 37 -225 203 -108 111 -319 326 -469 477
-489 495 -467 471 -510 581 -41 109 -38 105 -211 201 -129 72 -222 118 -236
118 -6 0 -40 -28 -75 -62z m2643 -2390 c247 -247 393 -400 393 -412 0 -22 -27
-56 -44 -56 -15 0 -806 792 -806 807 0 17 36 53 52 53 7 0 189 -177 405 -392z
m-193 -207 c364 -363 384 -384 374 -407 -6 -14 -22 -27 -36 -31 -21 -5 -67 37
-398 368 -206 206 -377 384 -380 397 -7 26 21 65 43 60 7 -2 186 -176 397
-387z"/>
<path d="M4812 8142 c-12 -8 -41 -126 -42 -170 0 -17 -12 -28 -57 -47 -93 -42
-97 -41 -150 3 -26 21 -62 47 -79 57 -30 17 -32 17 -55 -1 -13 -10 -55 -52
-93 -91 l-69 -73 27 -37 c15 -21 40 -57 57 -80 l31 -41 -24 -73 -24 -73 -97
-17 c-52 -9 -100 -20 -106 -24 -16 -9 -14 -227 2 -247 8 -11 42 -20 102 -28
49 -6 90 -12 90 -13 30 -74 55 -145 55 -153 0 -6 -22 -42 -50 -80 -27 -38 -50
-76 -50 -84 0 -8 38 -53 84 -99 60 -60 89 -82 101 -77 9 3 45 27 81 52 l64 46
64 -17 c35 -10 69 -21 76 -25 7 -4 21 -50 32 -101 12 -59 25 -99 36 -107 12
-10 45 -12 121 -9 116 4 124 9 135 75 25 145 23 139 79 161 29 11 73 29 99 41
l48 21 -25 49 c-33 66 -32 88 11 151 85 127 133 167 240 199 34 10 46 10 72
-4 17 -9 49 -16 71 -16 60 0 71 22 71 147 0 119 -5 128 -82 137 -136 17 -123
9 -153 91 l-27 74 51 73 c28 39 51 79 51 87 -1 21 -154 181 -173 181 -8 0 -47
-25 -86 -55 -39 -30 -74 -55 -78 -55 -6 0 -135 50 -140 54 -2 1 -10 38 -19 82
-25 124 -25 124 -152 124 -59 0 -113 -4 -120 -8z m251 -505 c153 -76 224 -248
166 -402 -31 -82 -112 -163 -194 -194 -238 -90 -484 132 -421 379 28 110 119
206 224 236 68 20 161 12 225 -19z"/>
<path d="M5826 7185 c-8 -8 -20 -41 -26 -73 -15 -77 -18 -82 -78 -104 l-52
-19 -56 40 c-32 23 -65 41 -74 41 -16 0 -150 -127 -150 -143 0 -4 19 -36 41
-69 l42 -61 -18 -51 c-30 -85 -28 -83 -103 -88 -38 -3 -74 -8 -81 -12 -13 -9
-16 -202 -2 -210 5 -3 43 -11 84 -17 l75 -11 22 -60 22 -59 -41 -65 c-23 -36
-41 -67 -41 -70 0 -10 144 -144 155 -144 6 0 37 18 69 41 l56 40 57 -18 58
-18 15 -80 15 -80 102 -3 c117 -3 113 -6 133 95 7 35 18 67 24 71 6 5 32 14
58 21 47 11 48 11 100 -29 29 -22 60 -40 68 -40 19 0 150 130 150 148 0 7 -16
36 -35 65 -40 60 -41 62 -18 134 18 58 9 52 128 71 l50 7 3 106 3 106 -38 7
c-21 3 -54 6 -74 6 -43 0 -51 8 -79 82 l-21 56 31 45 c16 25 30 51 30 58 0 8
-34 47 -75 87 l-75 73 -57 -35 c-51 -32 -58 -34 -82 -22 -14 7 -38 16 -52 19
-26 7 -37 30 -54 117 -4 19 -12 41 -17 48 -16 18 -172 16 -192 -3z m190 -390
c58 -24 108 -70 140 -127 25 -46 29 -63 28 -128 0 -89 -21 -137 -84 -194 -57
-52 -103 -69 -180 -70 -81 0 -146 30 -201 93 -150 170 -28 439 199 441 34 0
79 -7 98 -15z"/>
<path d="M3542 4125 c-28 -47 -52 -89 -52 -93 0 -4 38 -6 85 -4 l84 3 71 83
c38 46 70 86 70 90 0 3 -46 6 -103 6 l-103 0 -52 -85z"/>
<path d="M5301 3935 c-121 -34 -234 -123 -286 -225 -75 -148 -67 -347 19 -495
36 -60 112 -127 189 -165 59 -29 80 -34 166 -38 61 -3 119 0 152 8 68 16 158
63 211 110 l41 36 -61 65 c-46 48 -64 62 -75 54 -106 -77 -151 -95 -232 -94
-105 1 -188 56 -235 155 -30 62 -32 73 -28 148 5 91 26 142 80 195 57 56 104
75 188 75 84 0 130 -18 187 -73 18 -17 36 -31 40 -31 5 1 37 28 73 60 l64 60
-49 45 c-26 25 -82 62 -123 83 -68 33 -83 37 -171 39 -63 2 -115 -2 -150 -12z"/>
<path d="M6578 3931 c-79 -25 -137 -61 -199 -123 -116 -117 -157 -309 -102
-483 48 -152 160 -262 307 -301 65 -18 206 -18 271 0 200 53 335 239 335 462
0 204 -133 384 -327 444 -83 26 -206 26 -285 1z m254 -189 c134 -59 201 -225
148 -366 -26 -68 -77 -128 -134 -159 -56 -29 -183 -31 -240 -3 -54 27 -104 80
-132 140 -34 73 -34 187 1 255 31 61 105 127 164 146 57 18 135 13 193 -13z"/>
<path d="M9487 3925 c-229 -79 -345 -297 -297 -556 24 -130 124 -260 246 -320
56 -28 78 -33 162 -37 156 -7 271 29 369 116 l43 37 -39 40 c-21 22 -50 51
-64 64 l-26 24 -32 -27 c-66 -56 -108 -71 -199 -71 -75 0 -91 3 -132 27 -199
118 -195 414 9 518 39 20 62 25 123 24 84 0 137 -21 186 -74 16 -16 32 -30 36
-30 9 0 122 100 127 113 5 14 -58 76 -116 113 -104 68 -268 84 -396 39z"/>
<path d="M2070 3480 l0 -460 95 0 95 0 2 287 3 287 130 -217 c71 -119 133
-217 137 -217 8 0 32 37 178 275 52 85 98 155 103 155 4 0 7 -128 7 -285 l0
-286 93 3 92 3 0 455 0 455 -91 3 -91 3 -133 -223 c-74 -123 -139 -229 -145
-235 -8 -10 -45 44 -150 220 l-140 232 -92 3 -93 3 0 -461z"/>
<path d="M4144 3931 c-2 -2 -4 -208 -4 -458 l0 -453 95 0 95 0 0 160 0 161 81
-3 82 -3 91 -157 90 -158 103 0 c57 0 103 2 103 5 0 2 -45 77 -99 167 -78 127
-97 165 -86 173 7 6 34 25 60 43 68 48 100 121 99 227 0 93 -23 150 -82 210
-73 74 -96 79 -375 85 -137 3 -251 3 -253 1z m446 -187 c98 -39 108 -174 16
-218 -26 -12 -64 -16 -155 -16 l-121 0 0 125 0 125 110 0 c77 0 121 -5 150
-16z"/>
<path d="M5927 3933 c-4 -4 -7 -211 -7 -460 l1 -453 100 0 99 0 -2 458 -3 457
-90 3 c-50 1 -94 -1 -98 -5z"/>
<path d="M3428 3857 c-15 -39 -66 -175 -114 -302 -47 -126 -97 -257 -109 -290
-12 -33 -37 -97 -54 -143 -17 -46 -31 -88 -31 -93 0 -6 41 -9 102 -7 l102 3
32 85 c28 75 35 86 60 91 40 9 208 10 282 3 l60 -7 32 -88 32 -89 104 0 c57 0
104 4 104 8 0 5 -12 37 -26 73 -26 65 -177 470 -262 701 l-47 128 -120 0 -120
0 -27 -73z m272 -484 c0 -2 -56 -3 -125 -3 -69 0 -125 3 -125 6 0 8 88 264 99
289 5 11 12 29 16 40 5 14 24 -29 70 -155 36 -96 64 -176 65 -177z"/>
<path d="M7580 3845 l0 -84 143 -3 142 -3 3 -368 2 -368 91 3 90 3 2 365 2
365 138 3 137 3 0 84 0 85 -375 0 -375 0 0 -85z"/>
<path d="M8442 3478 l3 -453 323 -3 322 -2 0 90 0 90 -230 0 -231 0 3 98 3 97
197 3 197 2 -4 68 c-2 37 -4 75 -5 85 0 16 -16 17 -195 17 l-196 0 3 93 3 92
223 3 222 2 0 85 0 85 -320 0 -320 0 2 -452z"/>
<path d="M7036 2655 c-22 -33 -20 -38 9 -31 14 4 25 2 25 -4 0 -21 47 -9 73
18 15 15 27 31 27 35 0 13 -38 7 -50 -8 -7 -8 -19 -15 -27 -15 -13 0 -13 3 -3
15 11 13 9 15 -13 15 -15 0 -31 -9 -41 -25z"/>
<path d="M6585 2573 c-35 -9 -87 -55 -101 -89 -36 -86 -6 -182 73 -232 66 -42
83 -57 83 -71 0 -7 -12 -12 -27 -11 -44 3 -47 1 -28 -20 39 -43 115 -9 101 45
-4 14 -11 25 -16 25 -23 0 -8 18 19 23 16 3 42 17 57 31 28 24 28 25 11 43
-17 17 -19 17 -57 -4 -49 -29 -90 -29 -125 -1 -117 92 -6 266 121 189 25 -15
33 -16 47 -6 24 17 21 27 -16 52 -33 23 -105 36 -142 26z"/>
<path d="M3150 2406 l0 -166 30 0 29 0 3 113 3 112 19 -35 c27 -52 90 -150 96
-150 3 0 23 29 45 65 76 125 74 125 75 3 l0 -108 30 0 30 0 0 165 0 165 -29 0
c-31 0 -26 7 -138 -178 l-15 -24 -18 35 c-10 19 -36 63 -58 98 -33 55 -43 64
-70 67 l-32 3 0 -165z"/>
<path d="M3795 2533 c-38 -90 -115 -283 -115 -288 0 -3 13 -5 29 -5 22 0 31 6
41 30 12 30 13 30 92 30 79 0 80 0 91 -30 10 -25 17 -30 45 -30 18 0 32 3 30
8 -22 45 -34 75 -78 190 l-51 132 -35 0 c-30 0 -36 -5 -49 -37z m55 -37 c0 -2
11 -33 25 -70 l25 -66 -56 0 c-63 0 -60 -8 -27 87 10 29 21 53 26 53 4 0 7 -2
7 -4z"/>
<path d="M4189 2566 c-2 -3 -4 -76 -3 -163 l2 -158 26 -3 25 -3 3 113 3 113
79 -112 c69 -99 82 -113 107 -113 l29 0 0 165 0 165 -30 0 -30 0 0 -117 0
-117 -82 117 c-61 87 -87 117 -103 117 -12 0 -24 -2 -26 -4z"/>
<path d="M4670 2454 c0 -157 16 -190 103 -215 46 -13 100 6 136 46 l31 36 0
124 0 125 -24 0 c-24 0 -24 -1 -28 -114 -3 -105 -5 -117 -27 -140 -27 -28 -74
-34 -102 -13 -31 24 -39 56 -39 161 l0 106 -25 0 -25 0 0 -116z"/>
<path d="M5123 2545 c0 -22 4 -24 51 -27 l51 -3 2 -135 2 -135 25 -3 26 -3 0
140 0 141 50 0 c47 0 50 2 50 25 l0 25 -129 0 -128 0 0 -25z"/>
<path d="M5570 2405 l0 -165 120 0 120 0 0 25 c0 25 0 25 -96 25 l-95 0 3 43
3 42 75 5 c68 5 75 7 78 27 3 21 -1 22 -74 25 l-77 3 -1 40 -1 40 88 3 c85 3
87 3 87 27 l0 25 -115 0 -115 0 0 -165z"/>
<path d="M6000 2405 l0 -165 30 0 29 0 3 110 3 110 79 -110 c67 -96 82 -111
103 -108 l24 3 0 160 0 160 -25 3 -25 3 -3 -117 -3 -118 -54 80 c-90 131 -110
154 -137 154 l-24 0 0 -165z"/>
<path d="M7050 2545 c-5 -13 -34 -85 -65 -160 -30 -75 -55 -138 -55 -141 0 -2
14 -4 31 -4 24 0 32 6 40 30 l11 30 83 0 83 0 7 -30 c6 -26 11 -30 41 -30 l34
0 -13 33 c-8 17 -37 92 -66 165 l-53 132 -34 0 c-27 0 -36 -5 -44 -25z m78
-122 l21 -63 -55 0 c-30 0 -54 2 -54 5 0 2 8 26 18 52 11 26 22 57 26 67 9 27
20 12 44 -61z"/>
<path d="M7500 2549 c-55 -32 -83 -80 -83 -142 0 -86 44 -146 123 -167 143
-38 265 110 198 240 -43 84 -157 116 -238 69z m140 -44 c104 -54 61 -215 -57
-215 -45 0 -77 20 -98 60 -53 102 54 207 155 155z"/>
<path d="M8220 2405 l0 -165 93 0 c137 0 184 36 194 147 4 47 0 66 -19 103
-32 63 -70 80 -180 80 l-88 0 0 -165z m187 95 c36 -21 49 -66 40 -128 -9 -54
-48 -82 -114 -82 l-53 0 0 115 0 115 48 0 c29 0 59 -7 79 -20z"/>
<path d="M8710 2405 l0 -165 120 0 120 0 0 25 c0 25 -1 25 -90 25 l-90 0 0 45
0 45 75 0 c73 0 75 1 75 25 0 24 -2 25 -75 25 l-75 0 0 45 0 45 90 0 c89 0 90
0 90 25 l0 25 -120 0 -120 0 0 -165z"/>
<path d="M3268 1940 c-75 -40 -108 -157 -65 -237 41 -77 144 -106 226 -64 55
29 65 44 42 65 -18 16 -21 16 -56 -9 -43 -29 -74 -31 -115 -10 -68 35 -80 136
-24 193 7 7 27 18 44 24 26 9 38 7 80 -15 42 -22 51 -23 67 -12 17 13 17 14
-2 35 -45 51 -132 64 -197 30z"/>
<path d="M3754 1941 c-59 -27 -87 -72 -92 -146 -3 -50 0 -66 20 -95 71 -105
235 -106 299 -3 35 57 33 138 -5 188 -53 69 -143 92 -222 56z m148 -61 c82
-64 45 -194 -58 -206 -73 -9 -144 66 -129 135 6 29 41 75 65 84 35 13 98 7
122 -13z"/>
<path d="M4200 1791 l0 -171 31 0 30 0 -1 103 c-1 119 -1 127 8 106 20 -44 98
-159 109 -159 7 0 13 4 13 8 0 19 99 162 105 152 4 -6 5 -54 4 -108 l-3 -97
27 -3 27 -3 0 171 0 171 -27 -3 c-23 -2 -37 -19 -83 -94 -30 -50 -59 -92 -64
-93 -4 -1 -34 40 -65 91 -47 75 -63 94 -84 96 l-27 3 0 -170z"/>
<path d="M4760 1790 l0 -170 30 0 c30 0 30 0 30 59 l0 59 71 4 c65 3 74 6 100
36 21 23 29 43 29 70 0 80 -51 112 -175 112 l-85 0 0 -170z m178 104 c26 -18
30 -65 6 -85 -8 -7 -40 -14 -70 -17 l-54 -4 0 61 0 61 48 0 c27 0 57 -7 70
-16z"/>
<path d="M5210 1834 c0 -111 2 -129 21 -155 27 -39 69 -59 119 -59 57 0 96 23
120 70 18 35 20 56 18 153 l-3 112 -27 3 -28 3 0 -118 c-1 -123 -5 -139 -47
-161 -33 -18 -59 -14 -89 11 -26 22 -27 28 -32 145 -5 120 -5 122 -28 122 -24
0 -24 0 -24 -126z"/>
<path d="M5668 1955 c-3 -4 -4 -15 -1 -25 4 -15 16 -20 52 -22 l46 -3 3 -142
3 -143 24 0 24 0 3 143 3 142 53 3 c48 3 53 5 50 25 -3 21 -8 22 -129 25 -69
1 -128 0 -131 -3z"/>
<path d="M6132 1802 c-34 -87 -62 -164 -62 -170 0 -7 11 -12 26 -12 19 0 28 8
40 35 l14 35 79 0 79 0 12 -35 c10 -29 16 -35 41 -35 17 0 29 5 29 13 -1 6
-29 82 -63 167 l-63 155 -35 3 -35 3 -62 -159z m126 20 c12 -38 22 -72 22 -75
0 -4 -22 -7 -50 -6 -28 1 -50 7 -50 13 0 18 43 136 50 136 3 0 16 -31 28 -68z"/>
<path d="M6570 1790 l0 -170 85 0 c101 0 143 15 176 61 34 48 39 141 10 197
-31 61 -78 82 -186 82 l-85 0 0 -170z m168 109 c43 -15 62 -49 62 -109 0 -83
-40 -120 -131 -120 l-39 0 0 120 0 120 39 0 c21 0 52 -5 69 -11z"/>
<path d="M7150 1938 c-62 -32 -90 -77 -90 -145 0 -103 60 -165 164 -171 80 -4
131 24 164 88 45 87 12 187 -75 229 -56 27 -108 27 -163 -1z m160 -65 c43 -40
52 -80 30 -131 -31 -69 -104 -91 -168 -52 -71 44 -76 149 -9 190 48 30 110 26
147 -7z"/>
<path d="M7617 1953 c-4 -3 -7 -80 -7 -170 l0 -163 30 0 30 0 0 60 0 60 40 0
c38 0 40 -2 72 -60 30 -54 36 -60 66 -60 37 0 36 1 -15 83 l-24 38 31 29 c25
23 30 36 30 75 0 90 -36 115 -163 115 -46 0 -87 -3 -90 -7z m161 -54 c35 -12
45 -37 28 -71 -10 -20 -20 -23 -74 -26 l-62 -3 0 56 0 55 39 0 c21 0 52 -5 69
-11z"/>
<path d="M8090 1790 l0 -170 120 0 120 0 0 25 c0 24 -2 24 -92 27 l-93 3 1 40
0 40 77 3 c74 3 77 4 77 27 0 24 -2 25 -75 25 -43 0 -75 4 -76 10 0 6 -1 24
-1 40 0 17 1 35 1 40 1 6 39 10 92 10 88 0 90 1 87 23 -3 21 -7 22 -120 25
l-118 3 0 -171z"/>
<path d="M8568 1943 c-50 -31 -60 -101 -20 -136 10 -8 40 -22 67 -31 77 -25
95 -37 95 -62 0 -45 -63 -57 -117 -24 -29 17 -34 18 -48 4 -22 -22 -19 -30 19
-53 60 -38 169 -22 196 28 17 33 12 86 -11 107 -12 10 -53 30 -92 44 -39 14
-72 30 -74 37 -3 6 5 21 16 32 25 25 74 27 113 7 24 -13 28 -12 44 5 9 11 15
21 13 22 -52 42 -150 51 -201 20z"/>
</g>
</svg>
